<svg version="1.1" id="Layer_1" xmlns="http://www.w3.org/2000/svg" xmlns:xlink="http://www.w3.org/1999/xlink" x="0px" y="0px"
	 width="100%" viewBox="0 0 1024 576" enable-background="new 0 0 1024 576" xml:space="preserve">
<path fill="#000000" opacity="1.000000" stroke="none" 
	d="
M758.661011,304.190247 
	C764.141785,307.247864 764.170715,307.446655 760.266968,312.932556 
	C751.432068,325.348083 734.053467,330.071503 719.569580,323.993774 
	C706.158569,318.366302 697.499023,302.176025 700.046631,287.493042 
	C702.881348,271.155640 715.235168,259.613861 730.714844,258.840912 
	C746.790344,258.038269 760.189514,267.527832 764.573059,282.820190 
	C767.486633,292.984619 767.164001,293.413147 756.682434,293.409393 
	C742.862427,293.404480 729.042358,293.396973 715.222351,293.411957 
	C708.889221,293.418823 707.856873,294.677521 709.776855,300.894226 
	C712.471497,309.619354 718.016663,315.763092 727.176514,317.712524 
	C736.864868,319.774475 745.185669,317.026978 752.059631,309.743835 
	C753.977234,307.712158 754.452332,303.976318 758.661011,304.190247 
M752.790100,285.796478 
	C755.900574,285.680176 755.739868,283.925262 754.911316,281.710266 
	C751.712402,273.158752 744.949280,269.106445 736.504150,267.565674 
	C724.153015,265.312286 711.562927,273.976746 710.820740,285.825562 
	C724.551392,285.825562 738.243774,285.825562 752.790100,285.796478 
z"/>
<path fill="#000000" opacity="1.000000" stroke="none" 
	d="
M570.820190,325.610413 
	C557.021667,322.283508 547.164429,311.325073 544.949890,297.208557 
	C542.953674,284.483063 549.400574,270.358704 561.154663,263.634155 
	C576.127808,255.067947 589.851440,257.761078 601.898010,269.898865 
	C603.446411,268.278961 602.855957,266.523315 602.884827,264.969421 
	C602.943970,261.785980 604.387573,260.601746 607.546570,260.644257 
	C610.757019,260.687469 611.408752,262.346252 611.402100,265.079956 
	C611.357361,283.396362 611.350708,301.713013 611.412598,320.029358 
	C611.422241,322.882751 611.014954,324.907837 607.473511,324.917389 
	C603.979797,324.926788 602.680969,323.297699 602.887695,319.986176 
	C602.958496,318.851257 602.735168,317.697968 602.565674,315.517731 
	C593.265015,323.777679 583.283264,328.265137 570.820190,325.610413 
M559.122986,276.653076 
	C551.553894,287.058075 551.462402,298.444946 558.866150,308.611145 
	C565.130859,317.213287 576.482788,320.591858 586.980652,316.978607 
	C596.605347,313.665924 603.191101,304.902039 603.654968,294.789642 
	C604.172363,283.509827 598.181702,273.336334 588.640991,269.292603 
	C578.391113,264.948273 568.088745,267.364288 559.122986,276.653076 
z"/>
<path fill="#000000" opacity="1.000000" stroke="none" 
	d="
M290.877625,294.446594 
	C294.944916,306.327942 291.769897,316.348572 282.177765,322.794189 
	C272.928589,329.009460 259.934723,328.239532 251.524948,320.953888 
	C248.868271,318.652313 246.595825,316.002441 244.678864,313.055450 
	C243.202194,310.785309 241.458939,308.649109 245.010620,306.430023 
	C248.037445,304.538910 250.034393,304.179718 252.197968,307.812683 
	C255.960403,314.130341 261.194885,318.564026 269.245117,317.795227 
	C274.961395,317.249298 279.472595,314.675018 281.752991,309.244751 
	C283.912964,304.101257 283.200989,299.152405 279.725616,294.690308 
	C275.589417,289.379669 270.257477,285.378082 265.070099,281.203888 
	C261.315186,278.182312 257.433868,275.253204 254.056519,271.839966 
	C245.859055,263.555389 245.312775,251.005981 252.488419,242.904297 
	C259.811798,234.635788 273.348541,233.555450 282.376556,240.646667 
	C284.454681,242.278976 286.244507,244.295319 288.072113,246.224808 
	C289.937286,248.193954 291.965057,250.038452 288.525208,252.675095 
	C285.791901,254.770218 283.733978,256.052094 281.199738,252.431458 
	C278.861908,249.091385 275.599915,246.752426 271.522430,245.791336 
	C266.551971,244.619751 262.148956,245.626984 259.041962,249.834915 
	C256.065491,253.866074 256.483765,258.306946 258.621521,262.577454 
	C260.389618,266.109528 263.596313,268.320679 266.651093,270.640869 
	C273.403473,275.769470 280.437073,280.564667 286.071442,287.023743 
	C287.945740,289.172363 289.511505,291.508972 290.877625,294.446594 
z"/>
<path fill="#000000" opacity="1.000000" stroke="none" 
	d="
M358.720612,324.485413 
	C352.905243,325.791748 348.559052,324.301239 344.455414,320.224548 
	C337.852814,313.665375 330.680634,307.677216 323.702637,301.500275 
	C322.267090,300.229523 320.956848,298.670807 318.114227,297.921417 
	C318.114227,305.625793 318.193787,312.875061 318.083038,320.121399 
	C318.020935,324.182892 315.805542,325.689514 311.910095,324.824463 
	C308.630493,324.096191 309.092010,321.518555 309.083679,319.280121 
	C309.019897,302.136932 309.009277,284.993500 309.004578,267.850159 
	C309.002197,259.195312 309.029877,250.540359 309.078552,241.885651 
	C309.095856,238.811157 308.986267,235.816727 313.571075,235.794800 
	C318.077515,235.773270 318.160187,238.543411 318.152954,241.757263 
	C318.124786,254.240204 318.121857,266.723358 318.171753,279.206207 
	C318.178741,280.958191 317.690002,282.817566 319.027618,284.940735 
	C326.778259,278.236145 334.666565,271.909912 341.938477,264.940552 
	C346.503326,260.565613 351.365387,260.001587 357.047546,261.122162 
	C357.554688,263.570831 355.464172,264.319763 354.233826,265.406403 
	C345.630951,273.004272 337.041321,280.624573 328.215424,287.958496 
	C325.169861,290.489227 325.288940,292.018036 328.142303,294.511047 
	C337.790924,302.941223 347.296478,311.536591 356.767212,320.167023 
	C357.900482,321.199738 360.289764,321.869812 358.720612,324.485413 
z"/>
<path fill="#000000" opacity="1.000000" stroke="none" 
	d="
M657.657959,259.184387 
	C674.050598,257.798767 684.376648,267.143738 685.384888,283.115479 
	C686.141663,295.102631 685.439819,307.051788 685.455444,319.017700 
	C685.459534,322.148468 685.715393,325.148682 681.058960,324.965942 
	C676.432983,324.784363 676.905273,321.591248 676.890198,318.598389 
	C676.836548,307.947601 676.918762,297.294800 676.736328,286.646423 
	C676.529236,274.563477 671.794556,268.031891 663.014465,267.262329 
	C651.391174,266.243530 641.332886,273.636261 639.356384,284.789703 
	C637.307373,296.351898 638.669556,308.034607 638.312927,319.657867 
	C638.239746,322.042633 638.437073,324.487854 635.120667,324.838867 
	C631.883789,325.181427 629.626648,324.646698 629.649719,320.517670 
	C629.752930,302.045227 629.731567,283.571686 629.656067,265.098969 
	C629.643127,261.937500 630.772766,260.632782 634.029602,260.641205 
	C637.380371,260.649811 638.405518,262.187164 638.309692,265.243866 
	C638.265381,266.657623 637.843750,268.210266 639.140259,269.926880 
	C644.345947,264.907745 649.894165,260.483551 657.657959,259.184387 
z"/>
<path fill="#000000" opacity="1.000000" stroke="none" 
	d="
M451.635620,323.648315 
	C433.827118,315.107269 426.747925,298.241913 433.355621,280.778046 
	C439.586517,264.310059 458.565826,255.261841 476.591003,260.200500 
	C482.958832,261.945190 488.858093,264.595215 493.142731,269.862976 
	C494.361359,271.361176 496.918579,273.019806 494.186005,275.241089 
	C491.973572,277.039581 489.851105,278.618256 486.933655,275.546112 
	C478.731689,266.909180 468.422852,265.343353 457.483398,268.530029 
	C444.267090,272.379913 437.302551,285.169983 440.367432,298.779419 
	C443.114868,310.979034 455.963776,319.905731 468.561035,318.500610 
	C475.766815,317.696808 482.220490,315.246216 487.173676,309.864166 
	C489.911163,306.889709 491.868561,308.680817 493.977753,310.294373 
	C496.789886,312.445618 494.550507,314.075104 493.192719,315.612549 
	C484.202148,325.792969 467.078430,329.177551 451.635620,323.648315 
z"/>
<path fill="#000000" opacity="1.000000" stroke="none" 
	d="
M373.783813,265.233246 
	C380.254791,279.665527 386.556030,293.747833 393.155792,308.497162 
	C396.660889,303.474945 398.107269,298.503082 400.210297,293.880127 
	C404.414093,284.639252 408.313049,275.260223 412.402435,265.966614 
	C415.010864,260.038605 415.610382,259.811310 422.404205,261.437073 
	C423.063171,263.767700 421.553711,265.575470 420.728821,267.476074 
	C409.727722,292.823486 398.663300,318.143463 387.604736,343.465942 
	C385.331940,348.670288 384.020966,349.185211 377.410278,347.274200 
	C378.483643,342.578583 380.365448,338.066467 382.846100,334.089569 
	C388.941010,324.318390 388.116974,315.411133 382.745056,305.362488 
	C376.092743,292.918762 371.053589,279.611572 365.349030,266.663544 
	C364.630188,265.031921 363.555664,263.458618 363.889221,261.276062 
	C368.012054,260.311035 371.868713,259.586975 373.783813,265.233246 
z"/>
<path fill="#000000" opacity="1.000000" stroke="none" 
	d="
M508.636871,265.171143 
	C508.346771,261.127197 510.530975,260.736633 513.384094,260.669250 
	C518.720215,260.543274 516.524902,265.070099 517.904297,267.878876 
	C524.343201,262.077087 530.527039,255.335114 540.433899,261.292114 
	C538.964600,265.339508 537.887817,268.438019 532.434448,267.602081 
	C527.643799,266.867706 523.985229,270.103302 521.550537,274.239410 
	C518.230103,279.880249 517.518494,286.199677 517.373535,292.538696 
	C517.167969,301.530487 517.210876,310.531311 517.337280,319.525604 
	C517.384766,322.906525 516.595459,324.922607 512.711060,324.908569 
	C508.834595,324.894592 508.599823,322.589600 508.608643,319.628174 
	C508.661896,301.635834 508.632324,283.643219 508.636871,265.171143 
z"/>
</svg>