<svg version="1.1" id="Layer_1" xmlns="http://www.w3.org/2000/svg" xmlns:xlink="http://www.w3.org/1999/xlink" x="0px" y="0px"
	 width="100%" viewBox="0 0 1024 576" enable-background="new 0 0 1024 576" xml:space="preserve">
<path fill="#000000" opacity="1.000000" stroke="none" 
	d="
M682.136230,311.000000 
	C682.098328,319.823273 682.030762,328.146576 682.033691,336.469849 
	C682.035095,340.493683 680.503418,342.442413 676.098206,342.542725 
	C670.775330,342.663879 665.484070,342.994324 660.151611,342.507996 
	C656.951660,342.216156 653.602905,342.690277 652.608154,338.286346 
	C647.203857,340.682404 642.617188,343.423218 637.279602,344.263489 
	C617.515747,347.374878 599.966125,338.505096 590.204651,320.586273 
	C579.908325,301.685791 582.922668,272.553955 599.613037,257.439606 
	C611.989014,246.232254 630.348572,242.547821 645.554138,249.519699 
	C647.651306,250.481262 649.724121,251.495926 652.102478,252.625778 
	C654.154114,248.407303 657.748840,247.817276 661.747437,247.933960 
	C665.738770,248.050415 669.738037,247.881287 673.730530,247.975800 
	C680.958313,248.146896 682.036560,249.129990 682.080750,256.563141 
	C682.187683,274.541565 682.128113,292.520996 682.136230,311.000000 
M636.127136,273.206390 
	C624.333984,272.830383 616.668579,277.186005 614.172363,287.046295 
	C611.005371,299.556519 613.609558,309.248688 622.622314,315.013489 
	C624.409851,316.156860 626.460754,317.134552 628.520630,317.565582 
	C640.551208,320.083069 651.385620,313.274567 653.586609,301.992096 
	C656.511841,286.997498 650.061584,275.833527 636.127136,273.206390 
z"/>
<path fill="#000000" opacity="1.000000" stroke="none" 
	d="
M269.206787,213.977020 
	C273.507294,214.050827 277.334900,214.137985 281.162598,214.222351 
	C284.777527,214.302032 286.299438,215.890366 286.506195,219.755936 
	C287.423340,236.900284 286.796326,254.046860 286.957336,271.190186 
	C286.975830,273.159546 286.959808,275.129242 286.959808,278.593536 
	C292.651733,272.350403 297.472687,267.192719 302.149689,261.907623 
	C314.726501,247.695526 314.702118,247.669449 333.767242,247.851120 
	C336.264435,247.874908 338.764893,247.906219 341.256470,248.056061 
	C343.250305,248.175949 345.423523,248.272858 346.331482,250.501968 
	C347.275574,252.819870 345.475281,254.212112 344.172699,255.673767 
	C333.874573,267.229614 323.550903,278.762665 313.252991,290.318726 
	C312.383362,291.294617 311.644348,292.386932 310.502167,293.869812 
	C318.002350,302.006897 325.412964,310.062805 332.842133,318.101471 
	C338.265961,323.970306 343.726227,329.805481 349.142883,335.680878 
	C350.388123,337.031616 351.748932,338.479126 350.812073,340.527222 
	C349.984406,342.336639 348.186554,342.278717 346.509186,342.425598 
	C338.864319,343.094940 331.231628,343.113617 323.564514,342.621338 
	C320.307159,342.412170 317.953949,341.281830 315.805023,338.915710 
	C307.857788,330.165161 299.811249,321.504303 291.745697,312.862274 
	C290.438873,311.462006 289.512756,309.573914 287.075256,308.794098 
	C286.687408,318.238342 287.186737,327.498749 286.526123,336.736298 
	C286.248016,340.624634 285.212982,342.393646 281.056183,342.586334 
	C275.224945,342.856598 269.437042,342.928223 263.601715,342.622192 
	C259.256104,342.394287 257.822449,340.415039 257.843353,336.347382 
	C257.905884,324.192810 257.769897,312.037415 257.762573,299.882294 
	C257.747650,275.071014 257.738464,250.259689 257.783722,225.448486 
	C257.803345,214.680542 257.867065,214.680664 269.206787,213.977020 
z"/>
<path fill="#000000" opacity="1.000000" stroke="none" 
	d="
M851.602661,336.708008 
	C826.013123,353.028076 790.993103,345.378998 777.669495,320.271423 
	C768.169312,302.368835 768.871704,284.029175 780.007751,267.125244 
	C791.253845,250.054108 807.962585,243.804214 828.097473,246.533401 
	C854.894165,250.165558 872.696167,272.939728 870.351929,300.353058 
	C869.998474,304.485901 867.623535,305.171021 864.280151,305.173676 
	C845.288879,305.188751 826.297485,305.219910 807.306335,305.291748 
	C805.353882,305.299133 803.331604,304.862549 801.442871,305.763458 
	C802.681641,312.139343 808.086792,317.229401 815.698242,318.418945 
	C823.859253,319.694366 831.774536,318.739441 838.255066,313.004333 
	C841.089844,310.495605 843.706238,310.349060 846.883606,311.924438 
	C851.508545,314.217468 856.179749,316.421234 860.875610,318.565887 
	C864.785583,320.351654 865.246582,322.976288 862.619446,326.065063 
	C859.384338,329.868561 855.914917,333.475372 851.602661,336.708008 
M833.979370,280.827820 
	C835.509094,280.579163 837.277893,281.516602 838.731384,279.809662 
	C833.515503,272.765869 826.363525,270.444244 818.118835,271.543182 
	C812.403381,272.304962 807.027466,274.241821 803.356201,280.827118 
	C813.961609,280.827118 823.533936,280.827118 833.979370,280.827820 
z"/>
<path fill="#000000" opacity="1.000000" stroke="none" 
	d="
M228.182831,265.798584 
	C234.933899,271.755310 241.940643,276.910889 247.483917,283.654144 
	C257.441406,295.767212 260.361603,309.319916 253.932724,323.733002 
	C247.872620,337.319305 236.638672,344.309387 221.721725,345.456909 
	C201.621567,347.003082 185.993286,338.122467 177.061096,320.027954 
	C175.520844,316.907745 175.809235,314.692383 178.843567,312.881042 
	C184.134033,309.722900 189.428726,306.569092 194.652328,303.302582 
	C197.975906,301.224213 200.270737,302.210266 202.059357,305.359772 
	C203.797562,308.420471 205.901016,311.184937 208.493149,313.592896 
	C210.638611,315.585907 213.135239,316.894165 215.968201,317.372070 
	C220.431290,318.124878 224.525162,316.902985 226.879593,313.020935 
	C229.122177,309.323334 227.700958,305.619263 224.917389,302.524445 
	C218.534027,295.427338 210.659027,290.010376 203.602844,283.669220 
	C198.269257,278.876129 192.930527,274.092529 188.707733,268.247803 
	C180.377045,256.717468 178.324966,244.326019 185.645493,231.771545 
	C192.997650,219.162857 204.618835,213.810883 219.234085,214.372498 
	C233.835312,214.933548 243.985474,223.005157 252.983047,233.335922 
	C255.103760,235.770859 255.209793,238.047455 252.661301,240.255157 
	C247.880188,244.396912 243.098495,248.538300 238.349335,252.716553 
	C235.625046,255.113312 233.358353,254.599701 231.088593,251.979309 
	C229.241974,249.847443 227.243835,247.820053 225.129715,245.953873 
	C222.831863,243.925491 220.038925,242.642776 216.951218,242.659668 
	C214.403381,242.673584 211.890457,243.413300 210.750961,246.068512 
	C209.722153,248.465851 211.154541,250.354248 212.730042,251.828705 
	C217.712982,256.491974 222.837585,261.003937 228.182831,265.798584 
z"/>
<path fill="#000000" opacity="1.000000" stroke="none" 
	d="
M685.689026,265.007172 
	C685.711548,260.845367 685.791443,257.181244 685.742004,253.518875 
	C685.694885,250.028458 687.372559,248.161667 690.808105,248.108231 
	C696.965454,248.012497 703.125000,248.046021 709.283630,248.054886 
	C712.373657,248.059326 714.016052,249.965897 714.757446,253.001709 
	C720.277405,250.075058 725.377991,247.437943 731.255005,246.444122 
	C751.788391,242.971832 769.627136,256.864105 770.142883,277.686920 
	C770.633301,297.490906 770.235168,317.315918 770.349548,337.130981 
	C770.371826,340.991180 768.617493,342.501801 764.990479,342.695496 
	C759.162964,343.006714 753.359741,342.860809 747.528870,342.631531 
	C743.023865,342.454407 741.856506,340.342682 741.860535,336.360321 
	C741.875488,321.706879 741.734619,307.053375 741.697876,292.399750 
	C741.689941,289.224274 741.380920,286.104370 740.861145,282.970398 
	C740.103577,278.402069 738.492493,274.424316 733.522522,273.360626 
	C728.189697,272.219269 723.197937,273.082581 719.519592,277.660828 
	C715.554993,282.595398 714.522705,288.510345 714.437317,294.558350 
	C714.242065,308.377411 714.169983,322.200958 714.299622,336.020325 
	C714.342957,340.646362 712.802124,342.546295 707.970520,342.623016 
	C702.648438,342.707550 697.348022,342.837067 692.015869,342.680634 
	C687.256104,342.540924 685.625122,340.561768 685.691895,335.943817 
	C685.865295,323.956940 685.721619,311.965576 685.710449,299.975983 
	C685.699707,288.485870 685.696411,276.995728 685.689026,265.007172 
z"/>
<path fill="#000000" opacity="1.000000" stroke="none" 
	d="
M374.385986,248.036209 
	C378.241211,248.323837 379.437927,250.821030 380.562195,253.551971 
	C385.761230,266.181122 391.006714,278.791351 396.300110,291.381226 
	C397.048676,293.161682 397.415894,295.228577 399.713959,296.824219 
	C403.681824,288.262390 407.594879,279.864594 411.467102,271.447998 
	C414.251770,265.395203 417.134247,259.380402 419.680237,253.227432 
	C421.245850,249.443726 423.807648,247.880142 427.763794,247.947495 
	C433.427124,248.043900 439.101685,247.796341 444.755188,248.053345 
	C449.776093,248.281586 450.996368,250.354813 448.903076,254.924881 
	C431.215607,293.540619 413.453186,332.122040 395.764008,370.737000 
	C394.519623,373.453522 392.762665,375.037415 389.697784,375.019287 
	C383.367767,374.981873 377.028442,375.177490 370.710419,374.891235 
	C366.070160,374.680969 364.915771,372.484222 366.893951,368.177002 
	C371.551422,358.036224 376.195190,347.884979 381.116302,337.871582 
	C382.902588,334.236908 382.805328,331.099152 381.273560,327.426300 
	C371.528534,304.060120 361.952667,280.623322 352.335571,257.203827 
	C349.234680,249.652542 350.214935,248.124619 358.457031,247.957718 
	C363.619537,247.853149 368.786682,247.977295 374.385986,248.036209 
z"/>
<path fill="#000000" opacity="1.000000" stroke="none" 
	d="
M479.012756,280.037750 
	C468.333374,294.234436 472.457916,312.287445 487.619385,316.773682 
	C497.618988,319.732513 507.529358,318.766388 515.488953,310.833801 
	C517.692566,308.637634 519.769836,307.729034 522.486145,309.594696 
	C527.427124,312.988403 532.348450,316.410736 537.270813,319.831390 
	C540.179565,321.852722 540.469604,323.981750 538.140198,326.886597 
	C517.226990,352.966217 465.975098,352.460266 448.856873,317.065948 
	C434.437531,287.251923 453.546570,251.547485 486.800018,246.773300 
	C507.093842,243.859741 524.832703,248.444351 538.471802,264.755524 
	C542.156311,269.161896 541.924866,270.667603 536.843018,273.538696 
	C532.638123,275.914337 528.304932,278.072021 524.175049,280.568512 
	C520.694275,282.672638 517.993958,282.443726 514.796814,279.653503 
	C504.284088,270.478851 490.197296,270.673401 479.012756,280.037750 
z"/>
<path fill="#000000" opacity="1.000000" stroke="none" 
	d="
M594.193115,249.050995 
	C595.714539,251.016739 595.435425,252.811646 594.800293,254.576080 
	C592.942200,259.738190 591.029419,264.880554 589.148499,270.034454 
	C588.020996,273.123871 586.029724,273.844666 582.854126,272.952209 
	C577.043335,271.319153 574.558411,272.670593 572.668335,278.372253 
	C570.928833,283.619476 570.464600,289.121460 570.414062,294.607605 
	C570.291321,307.919403 570.362549,321.232849 570.317444,334.545502 
	C570.292297,341.966766 570.248657,341.866028 563.004395,342.534668 
	C557.676208,343.026459 552.391663,342.890900 547.062622,342.548065 
	C543.503662,342.319122 541.919312,340.846344 541.921448,337.353882 
	C541.938293,309.398743 541.932007,281.443573 541.933167,253.488419 
	C541.933289,250.085464 543.557251,247.955994 547.026123,248.105469 
	C553.862305,248.400055 560.975281,246.069473 567.447937,250.224304 
	C569.222900,251.363678 570.547913,249.659561 571.945618,248.930664 
	C579.245911,245.123550 586.548279,244.854782 594.193115,249.050995 
z"/>
</svg>