<svg version="1.1" id="Layer_1" xmlns="http://www.w3.org/2000/svg" xmlns:xlink="http://www.w3.org/1999/xlink" x="0px" y="0px"
	 width="100%" viewBox="0 0 1024 576" enable-background="new 0 0 1024 576" xml:space="preserve">
<path fill="#000000" opacity="1.000000" stroke="none" 
	d="
M595.877197,272.205750 
	C601.398865,264.840118 607.234253,257.677429 615.752869,253.673172 
	C628.504517,247.679169 641.423401,247.432220 654.222107,253.816589 
	C655.700867,254.554214 657.174255,255.302567 659.041870,256.243225 
	C660.864929,251.426956 664.851379,251.629608 668.898682,251.732086 
	C673.557251,251.850037 678.230835,251.947601 682.880005,251.707947 
	C687.665283,251.461258 689.343323,253.505386 689.321594,258.192139 
	C689.203491,283.665192 689.351562,309.139435 689.250366,334.612640 
	C689.194275,348.734558 690.596924,347.119385 676.690918,347.359100 
	C673.362549,347.416504 670.028137,347.219116 666.703064,347.331665 
	C663.441711,347.442078 660.710693,346.814423 659.581848,342.968658 
	C654.199036,345.536865 649.265137,348.253540 643.625488,349.252869 
	C619.179504,353.584595 595.048706,335.833710 590.705383,310.403778 
	C588.716675,298.759888 590.243408,287.548065 594.090820,275.828186 
	C594.777954,274.173920 595.327576,273.189850 595.877197,272.205750 
M619.296143,299.501526 
	C619.299072,300.333038 619.294861,301.164642 619.305969,301.996063 
	C619.427063,311.069122 624.621521,318.576935 632.873047,321.609314 
	C640.910950,324.563202 649.809937,322.366577 655.612183,315.820190 
	C662.171143,308.420013 662.214905,299.552795 659.826965,290.873016 
	C656.895264,280.216919 647.232544,275.441956 634.815796,277.209290 
	C626.604187,278.378143 618.005493,288.053619 619.296143,299.501526 
z"/>
<path fill="#000000" opacity="1.000000" stroke="none" 
	d="
M257.200562,343.448334 
	C256.448761,303.513000 256.573212,264.024475 256.962616,224.536560 
	C257.030212,217.686020 257.743408,217.075928 264.434052,216.952499 
	C269.596680,216.857269 274.765869,217.058838 279.926178,216.914673 
	C284.840576,216.777359 286.191559,219.389038 286.182343,223.797607 
	C286.145721,241.293030 286.241974,258.788879 286.344513,276.284241 
	C286.354736,278.029297 285.791565,279.890625 287.135651,281.977173 
	C294.811554,273.422272 302.450195,265.138214 309.801636,256.606598 
	C312.882996,253.030487 316.245911,251.364029 321.045380,251.627151 
	C327.690796,251.991470 334.371002,251.689056 341.035400,251.759415 
	C343.121948,251.781448 345.629974,251.198257 346.747894,253.736237 
	C347.852448,256.243927 345.843994,257.732605 344.424255,259.318298 
	C334.316528,270.607208 324.333221,282.012634 314.003204,293.094696 
	C310.558044,296.790649 311.025299,299.133331 314.318695,302.558167 
	C325.634033,314.325043 336.660858,326.369568 347.780884,338.323822 
	C348.913147,339.541016 350.062927,340.776611 350.977936,342.154175 
	C352.946716,345.118164 351.928741,347.131958 348.519287,347.200531 
	C339.526306,347.381531 330.526978,347.250671 321.530182,347.238312 
	C319.263916,347.235199 317.937500,345.632721 316.585571,344.185333 
	C307.829590,334.811035 299.120636,325.392731 290.351562,316.030762 
	C289.384155,314.997986 288.633148,313.555511 286.126251,313.338623 
	C286.126251,322.371796 286.177063,331.301422 286.109436,340.230103 
	C286.059601,346.812195 285.549316,347.279449 278.935455,347.325500 
	C273.437378,347.363770 267.938538,347.289368 262.440338,347.319641 
	C259.909882,347.333588 257.730133,346.947784 257.200562,343.448334 
z"/>
<path fill="#000000" opacity="1.000000" stroke="none" 
	d="
M859.590637,257.271423 
	C876.179016,268.856354 881.999390,285.032349 881.518433,304.206848 
	C881.406982,308.650543 878.922791,309.275299 875.316895,309.272247 
	C855.672058,309.255676 836.027222,309.324036 816.382568,309.413116 
	C814.618103,309.421112 812.738098,308.884369 811.093018,310.004944 
	C812.414001,318.843048 822.928833,323.753906 831.202271,323.530334 
	C837.863525,323.350342 844.087708,321.811768 849.246948,317.353943 
	C852.037476,314.942749 854.732483,314.887817 857.926025,316.574188 
	C862.189453,318.825562 866.653198,320.693756 870.984131,322.821747 
	C876.239746,325.404053 876.640869,327.238159 872.784241,331.879242 
	C865.292847,340.894775 855.914978,346.640472 844.259521,348.908966 
	C820.262024,353.579651 798.660400,345.135406 787.406616,325.377045 
	C770.995239,296.563293 785.747009,257.273743 819.463684,250.324661 
	C833.445190,247.443039 846.933716,249.397217 859.590637,257.271423 
M831.500061,284.857513 
	C837.343811,284.857513 843.187622,284.857513 850.130493,284.857513 
	C843.954163,275.647522 836.106812,274.341431 827.509216,275.338165 
	C821.642944,276.018250 816.651550,278.357452 813.087463,284.857117 
	C819.651611,284.857117 825.076660,284.857117 831.500061,284.857513 
z"/>
<path fill="#000000" opacity="1.000000" stroke="none" 
	d="
M251.571503,295.612549 
	C264.291626,321.682159 247.384888,349.195618 218.817368,350.520416 
	C198.862976,351.445770 184.983063,342.884827 175.330154,326.114594 
	C172.618195,321.403076 173.016922,319.459015 177.533325,316.656281 
	C182.062958,313.845367 186.692764,311.194794 191.200089,308.349487 
	C194.950577,305.981964 197.575180,306.153625 200.235077,310.330170 
	C204.086670,316.377869 208.343582,322.337189 216.995377,321.768280 
	C220.991425,321.505493 224.182480,320.159363 225.938065,316.487549 
	C227.739334,312.720215 225.792908,309.631500 223.414902,306.979675 
	C216.040527,298.756073 206.885880,292.500732 198.808167,285.043610 
	C194.880463,281.417664 191.046387,277.721710 187.743652,273.522766 
	C179.348755,262.849884 175.691437,251.060013 181.483444,238.118271 
	C187.548370,224.566711 198.693146,217.723923 213.413147,216.924347 
	C225.557663,216.264648 235.923828,220.536987 244.584412,229.043076 
	C255.283630,239.551392 255.298218,239.550842 244.187195,249.601715 
	C241.839981,251.724960 239.427139,253.775833 237.038193,255.852753 
	C234.417496,258.131165 232.036346,257.975616 229.690811,255.328094 
	C227.815933,253.211868 225.788376,251.223373 223.743149,249.267517 
	C221.202942,246.838348 218.102783,245.822327 214.603958,245.967819 
	C212.205856,246.067566 209.791412,246.302353 208.710144,248.863586 
	C207.638702,251.401550 209.007950,253.304810 210.706482,255.083740 
	C217.977753,262.699310 226.316177,269.104675 234.255875,275.963837 
	C240.821808,281.636200 247.297470,287.409637 251.571503,295.612549 
z"/>
<path fill="#000000" opacity="1.000000" stroke="none" 
	d="
M776.928467,269.454376 
	C778.680542,274.602631 779.286133,279.495209 779.260437,284.554047 
	C779.164734,303.381714 779.122498,322.211304 779.313782,341.037628 
	C779.361816,345.764130 777.827087,347.697357 772.983765,347.399384 
	C767.837891,347.082764 762.657410,347.362427 757.492920,347.304382 
	C751.275513,347.234497 750.774109,346.712128 750.748962,340.302643 
	C750.699280,327.639252 750.648315,314.975555 750.684692,302.312256 
	C750.698608,297.475128 750.449158,292.682190 749.813965,287.878174 
	C749.131165,282.714050 747.353455,278.551788 741.924255,276.895691 
	C736.762512,275.321167 731.161865,277.080322 727.603638,281.514709 
	C723.981323,286.028870 722.994080,291.351074 722.930237,296.984436 
	C722.766052,311.474609 722.519287,325.963776 722.312744,340.453491 
	C722.221985,346.820862 721.856384,347.249634 715.464294,347.310516 
	C709.641541,347.365967 703.817200,347.243134 697.994263,347.289154 
	C695.084167,347.312195 693.797485,346.051819 693.718933,343.103882 
	C693.053650,318.127930 692.614441,293.153107 693.487183,268.172333 
	C693.620911,264.343658 693.743896,260.506866 693.641785,256.679962 
	C693.553833,253.381180 694.728699,251.701080 698.231201,251.754547 
	C704.561035,251.851151 710.894287,251.832214 717.224609,251.748688 
	C720.311768,251.707947 722.300354,253.002014 722.679749,256.155670 
	C750.397278,244.850067 767.257751,248.996185 776.928467,269.454376 
z"/>
<path fill="#000000" opacity="1.000000" stroke="none" 
	d="
M436.023773,251.683365 
	C440.182037,251.706497 443.850586,251.651749 447.512512,251.782272 
	C452.685455,251.966629 453.734955,253.660904 451.547241,258.450989 
	C442.070679,279.200012 432.548309,299.928101 423.025421,320.655945 
	C414.753357,338.661163 406.361145,356.612183 398.248322,374.688721 
	C396.441742,378.713959 394.170044,380.641754 389.587708,380.482086 
	C384.286255,380.297333 378.969330,380.739532 373.638794,380.426270 
	C366.948090,380.033112 365.853363,378.428925 368.660034,372.457031 
	C373.547455,362.057770 378.330597,351.608795 383.312592,341.255249 
	C384.579895,338.621552 384.590820,336.341431 383.476959,333.665985 
	C373.300629,309.222321 363.232056,284.733795 353.108948,260.267944 
	C350.109039,253.017685 350.847412,251.810181 358.589508,251.757278 
	C363.921021,251.720840 369.258911,251.904114 374.582733,251.698380 
	C378.266815,251.556000 380.292572,252.900223 381.706207,256.424500 
	C387.099030,269.869049 392.789307,283.194305 398.383545,296.557861 
	C399.016907,298.070862 399.745636,299.543915 400.975037,302.222748 
	C404.961182,293.664368 408.519135,286.079926 412.028931,278.473236 
	C415.098572,271.820496 418.369141,265.244049 421.068695,258.442505 
	C423.055603,253.436447 425.959534,250.781677 431.537476,251.689819 
	C432.834229,251.900925 434.198120,251.699692 436.023773,251.683365 
z"/>
<path fill="#000000" opacity="1.000000" stroke="none" 
	d="
M478.313721,310.466461 
	C487.217499,326.946625 510.037140,325.370605 519.128784,315.881989 
	C522.511475,312.351624 525.094849,312.729370 528.538513,315.331146 
	C532.384644,318.237061 536.509277,320.771698 540.466675,323.533875 
	C545.006592,326.702515 545.303162,328.150116 541.795227,332.261017 
	C529.761597,346.363007 513.880249,350.785675 496.085419,349.934540 
	C468.385529,348.609619 452.655487,330.047943 448.268433,311.621277 
	C440.947266,280.870941 463.114075,251.675705 494.708649,249.548126 
	C513.040833,248.313660 528.905090,252.696747 541.536682,266.696960 
	C546.552917,272.256653 546.419006,274.192932 539.826721,278.000183 
	C538.242004,278.915405 536.528320,279.639191 535.043945,280.690918 
	C528.122864,285.594818 522.126587,287.195465 514.550049,280.395142 
	C507.457886,274.029541 491.826416,275.983215 484.111145,282.215363 
	C476.706909,288.196259 474.411011,298.961700 478.313721,310.466461 
z"/>
<path fill="#000000" opacity="1.000000" stroke="none" 
	d="
M595.946289,271.802521 
	C595.327576,273.189850 594.777954,274.173920 594.158936,275.423218 
	C592.057190,277.583496 589.814636,276.789124 587.502380,276.351410 
	C582.092590,275.327240 579.940613,276.655579 577.983643,281.865814 
	C576.193848,286.630981 576.030579,291.610229 575.961304,296.609955 
	C575.753906,311.575653 575.416626,326.540924 575.388733,341.506836 
	C575.380676,345.846161 573.766357,347.503448 569.501221,347.354340 
	C563.851562,347.156830 558.185120,347.153870 552.535217,347.344727 
	C548.225464,347.490356 546.644897,345.699463 546.669189,341.428223 
	C546.764587,324.636627 546.756775,307.842377 546.557129,291.051849 
	C546.424805,279.922882 546.237793,268.804657 546.624695,257.673065 
	C546.771423,253.451080 548.227844,251.572754 552.541931,251.736328 
	C557.525818,251.925308 563.035156,250.450302 567.385986,252.120850 
	C573.109680,254.318497 577.053162,252.125916 581.854736,250.375610 
	C586.915039,248.530945 592.340210,248.931244 597.474731,251.016525 
	C600.581604,252.278290 601.848999,254.214890 600.555847,257.674011 
	C598.869629,262.184509 597.513550,266.818451 595.946289,271.802521 
z"/>
</svg>